<svg id="Layer_1" data-name="Layer 1" xmlns="http://www.w3.org/2000/svg" viewBox="0 0 100 100"><defs><style>.cls-1{fill:#fff;}</style></defs><rect class="cls-1" x="3.5" y="3.5" width="93" height="93" rx="17.7"/><path d="M78.8,7A14.22,14.22,0,0,1,93,21.2V78.8A14.22,14.22,0,0,1,78.8,93H21.2A14.22,14.22,0,0,1,7,78.8V21.2A14.22,14.22,0,0,1,21.2,7H78.8m0-7H21.2A21.2,21.2,0,0,0,0,21.2V78.8A21.2,21.2,0,0,0,21.2,100H78.8A21.2,21.2,0,0,0,100,78.8V21.2A21.2,21.2,0,0,0,78.8,0Z"/><circle class="cls-1" cx="50" cy="50" r="21.5"/><path d="M50,32A18,18,0,1,1,32,50,18,18,0,0,1,50,32m0-7h0A25,25,0,0,0,25,50h0A25,25,0,0,0,50,75h0A25,25,0,0,0,75,50h0A25,25,0,0,0,50,25Z"/><circle cx="78" cy="22" r="8"/></svg>